<svg xmlns="http://www.w3.org/2000/svg" viewBox="0 0 812.49 210"><title>logo_dsq_wt</title><path d="M205.8,226.36A61.49,61.49,0,0,1,158.91,192a88.77,88.77,0,0,0,45.52-4.25v32.45a44,44,0,0,0,.27,4.75C204.73,225.43,205.39,225.89,205.8,226.36Z" transform="translate(-85.56 -16.95)" style="fill:#b76935"/><path d="M216.37,226.92c-.67,0-1.35,0-2,0s-1.36,0-2,0Z" transform="translate(-85.56 -16.95)" style="fill:#b76935"/><path d="M274.13,174.16c0,7.27-7.17,13.17-16,13.17s-16-5.9-16-13.17Z" transform="translate(-85.56 -16.95)" style="fill:#b76935"/><path d="M261.89,105.12c0,1.46,0,2.92-.11,4.36a45.2,45.2,0,0,0-8.86-1.33,46.94,46.94,0,0,0-13.6,1.28,41.91,41.91,0,0,0-4.18,1.24,44.88,44.88,0,0,0-9.38,4.46v-19a12.31,12.31,0,0,0-5.7,23.22,44.65,44.65,0,0,0-15.63,33.91v34.51a88.18,88.18,0,1,1,57.46-82.66Z" transform="translate(-85.56 -16.95)" style="fill:#d77a31"/><path d="M285.36,106.47a12.31,12.31,0,0,1-7,11.11,45.75,45.75,0,0,0-5.27-3.54V94.16A12.32,12.32,0,0,1,285.36,106.47Z" transform="translate(-85.56 -16.95)" style="fill:#d77a31"/><path d="M278.32,117.58a45.75,45.75,0,0,0-5.27-3.54,44.95,44.95,0,0,0-20.13-5.89,46.94,46.94,0,0,0-13.6,1.28,41.91,41.91,0,0,0-4.18,1.24,45.19,45.19,0,0,0-14.54,8.22l-.54.47a44.65,44.65,0,0,0-15.63,33.91v67a44,44,0,0,0,.27,4.75c0,.45.69.91,1.1,1.38a1.26,1.26,0,0,1,.34.56h18.31c0-.27,0-.54,0-.8a31.65,31.65,0,0,1,63.3.8h8.12a.19.19,0,0,0,.19-.16,43.83,43.83,0,0,0,.48-6.53V154.7A47.07,47.07,0,0,0,278.32,117.58Zm-38.27,43.6a14.07,14.07,0,1,1,13.4-18.37,14.24,14.24,0,0,1,.67,4.31,14.06,14.06,0,0,1-12.26,13.95A13.54,13.54,0,0,1,240.05,161.18Zm18.05,26.15c-8.85,0-16-5.9-16-13.17h32.06C274.13,181.43,267,187.33,258.1,187.33Zm17.62-26.15h-.12a14.12,14.12,0,1,1,.12,0Z" transform="translate(-85.56 -16.95)" style="fill:#fb9e3d"/><path d="M274.13,174.16c0,7.27-7.17,13.17-16,13.17s-16-5.9-16-13.17Z" transform="translate(-85.56 -16.95)" style="fill:#fb9e3d"/><path d="M245.55,226.92H231.48c0-2.16,3.17-3.93,7-3.93S245.55,224.76,245.55,226.92Z" transform="translate(-85.56 -16.95)" style="fill:#fb9e3d"/><path d="M280.72,226.92H266.66c0-2.16,3.16-3.93,7-3.93S280.72,224.76,280.72,226.92Z" transform="translate(-85.56 -16.95)" style="fill:#fb9e3d"/><path d="M274.13,174.16c0,7.27-7.17,13.17-16,13.17s-16-5.9-16-13.17Z" transform="translate(-85.56 -16.95)" style="fill:#1a1a1a;stroke:#333;stroke-miterlimit:10;stroke-width:0.25px"/><rect x="172.53" y="157.21" width="7.03" height="7.03" style="fill:#f2f2f2;stroke:#333;stroke-miterlimit:10;stroke-width:0.25px"/><rect x="165.49" y="157.21" width="7.03" height="7.03" style="fill:#f2f2f2;stroke:#333;stroke-miterlimit:10;stroke-width:0.25px"/><path d="M225.76,96.14v19a44.48,44.48,0,0,0-5.16,3.76l-.54.47a12.31,12.31,0,0,1,5.7-23.22Z" transform="translate(-85.56 -16.95)" style="fill:#fb9e3d"/><path d="M287.76,226.92h-7c0-2.16-3.16-3.93-7-3.93s-7,1.77-7,3.93H245.55c0-2.16-3.16-3.93-7-3.93s-7,1.77-7,3.93h-7c0-.27,0-.54,0-.8a31.65,31.65,0,0,1,63.3.8Z" transform="translate(-85.56 -16.95)" style="fill:#f9be8a"/><path d="M245.55,226.92H231.48c0-2.16,3.17-3.93,7-3.93S245.55,224.76,245.55,226.92Z" transform="translate(-85.56 -16.95)" style="fill:#f9be8a"/><path d="M280.72,226.92H266.66c0-2.16,3.16-3.93,7-3.93S280.72,224.76,280.72,226.92Z" transform="translate(-85.56 -16.95)" style="fill:#f9be8a"/><path d="M245.55,226.92H231.48c0-2.16,3.17-3.93,7-3.93S245.55,224.76,245.55,226.92Z" transform="translate(-85.56 -16.95)" style="fill:#333"/><path d="M280.72,226.92H266.66c0-2.16,3.16-3.93,7-3.93S280.72,224.76,280.72,226.92Z" transform="translate(-85.56 -16.95)" style="fill:#333"/><path d="M289.78,147.12a14.07,14.07,0,0,1-14.06,14.06h-.12a14.07,14.07,0,1,1,14.18-14.06Z" transform="translate(-85.56 -16.95)" style="fill:#f2f2f2"/><circle cx="190.16" cy="130.16" r="7.03" style="fill:#1a1a1a;stroke:#22b5c6;stroke-miterlimit:10;stroke-width:3px"/><circle cx="187.22" cy="127.78" r="0.99" style="fill:#f2f2f2"/><path d="M254.12,147.12a14.06,14.06,0,0,1-12.26,13.95,13.54,13.54,0,0,1-1.81.11,14.07,14.07,0,1,1,13.4-18.37A14.24,14.24,0,0,1,254.12,147.12Z" transform="translate(-85.56 -16.95)" style="fill:#f2f2f2"/><circle cx="154.49" cy="130.16" r="7.03" style="fill:#1a1a1a;stroke:#22b5c6;stroke-miterlimit:10;stroke-width:3px"/><circle cx="151.56" cy="127.78" r="0.99" style="fill:#f2f2f2"/><path d="M390.42,62.76a3,3,0,0,1,.87,2.19v69.36A3.1,3.1,0,0,1,386,136.5a2.93,2.93,0,0,1-.86-2.19v-7.14a22.16,22.16,0,0,1-7.6,8,20.12,20.12,0,0,1-11.17,3.26,22,22,0,0,1-12.19-3.52,24.47,24.47,0,0,1-8.62-9.74,32.24,32.24,0,0,1,0-27.84,24.57,24.57,0,0,1,8.62-9.75A21.85,21.85,0,0,1,366.3,84a21.43,21.43,0,0,1,11.11,3,20.52,20.52,0,0,1,7.76,7.8V65a3.1,3.1,0,0,1,5.25-2.19Zm-13.87,67.17a18.71,18.71,0,0,0,6.63-7.71,25.1,25.1,0,0,0,2.39-11.06,24.64,24.64,0,0,0-2.39-10.92,19.13,19.13,0,0,0-6.63-7.7,17.65,17.65,0,0,0-19.08,0,19.13,19.13,0,0,0-6.63,7.7,26.25,26.25,0,0,0,0,21.93,19,19,0,0,0,6.63,7.7,16.8,16.8,0,0,0,9.54,2.81A17.19,17.19,0,0,0,376.55,129.93Z" transform="translate(-85.56 -16.95)" style="fill:#f2f2f2;stroke:#e6e6e6;stroke-miterlimit:10;stroke-width:0.25px"/><path d="M451.82,86.17a3.13,3.13,0,0,1,.87,2.24v45.9a2.94,2.94,0,0,1-.87,2.19,3.06,3.06,0,0,1-5.25-2.19v-6.83a21.38,21.38,0,0,1-7.65,7.75,20.69,20.69,0,0,1-11.12,3.16,22,22,0,0,1-12.29-3.57,24.47,24.47,0,0,1-8.57-9.79,30.88,30.88,0,0,1-3.11-14A30.1,30.1,0,0,1,407,97.13a24.32,24.32,0,0,1,8.62-9.64A22.83,22.83,0,0,1,438.92,87a19.53,19.53,0,0,1,7.65,7.76V88.41a3.17,3.17,0,0,1,.86-2.24,3.08,3.08,0,0,1,4.39,0ZM438,129.87a19,19,0,0,0,6.63-7.75,25,25,0,0,0,2.4-11.06,24.26,24.26,0,0,0-2.4-10.82,19.13,19.13,0,0,0-6.63-7.7,16.87,16.87,0,0,0-9.54-2.8,17.19,17.19,0,0,0-9.54,2.75,18.83,18.83,0,0,0-6.63,7.6,24.52,24.52,0,0,0-2.39,11,25.51,25.51,0,0,0,2.34,11.06,18.62,18.62,0,0,0,6.58,7.75,17,17,0,0,0,9.64,2.81A16.8,16.8,0,0,0,438,129.87Z" transform="translate(-85.56 -16.95)" style="fill:#f2f2f2;stroke:#e6e6e6;stroke-miterlimit:10;stroke-width:0.25px"/><path d="M478.9,91.17v34.17q0,3.87,1.43,5.25A5.19,5.19,0,0,0,484.1,132a5.94,5.94,0,0,0,1.53-.26,5.7,5.7,0,0,1,1.43-.25,2,2,0,0,1,1.58.76,2.66,2.66,0,0,1,.66,1.79,2.78,2.78,0,0,1-1.63,2.39,7.41,7.41,0,0,1-3.87,1,21.26,21.26,0,0,1-4.9-.51,7.78,7.78,0,0,1-4.13-3.06q-2-2.55-2-8.16V91.17h-7.45a3,3,0,0,1-2.09-.82,2.85,2.85,0,0,1,0-4.08,3,3,0,0,1,2.09-.82h7.45V74.13a3.06,3.06,0,1,1,6.12,0V85.45h10.2a2.68,2.68,0,0,1,2,.92,2.89,2.89,0,0,1,.87,2,2.62,2.62,0,0,1-.82,2,2.86,2.86,0,0,1-2,.77Z" transform="translate(-85.56 -16.95)" style="fill:#f2f2f2;stroke:#e6e6e6;stroke-miterlimit:10;stroke-width:0.25px"/><path d="M545.92,110.39a3,3,0,0,1-2.15.87H505.22a23.47,23.47,0,0,0,2.5,11,18.68,18.68,0,0,0,7.14,7.65,20.66,20.66,0,0,0,11,2.81,18.51,18.51,0,0,0,8.77-2,17.94,17.94,0,0,0,6.22-5.2,3.49,3.49,0,0,1,2.15-.92,2.82,2.82,0,0,1,2.65,2.65,3,3,0,0,1-1,2.14,25.59,25.59,0,0,1-8.21,6.53,22.54,22.54,0,0,1-10.46,2.55A28,28,0,0,1,512.05,135a23.86,23.86,0,0,1-9.38-9.44,28.35,28.35,0,0,1-3.37-14,30.88,30.88,0,0,1,3.32-14.64,23.86,23.86,0,0,1,8.82-9.59A22.36,22.36,0,0,1,523.17,84a24,24,0,0,1,11.47,2.85,22.66,22.66,0,0,1,8.73,8.37,25.26,25.26,0,0,1,3.46,13A2.75,2.75,0,0,1,545.92,110.39ZM512.2,94q-5,4.08-6.47,11.73h34.78v-.81a16.11,16.11,0,0,0-3.06-8,16.6,16.6,0,0,0-6.38-5.2,18.48,18.48,0,0,0-7.9-1.79A17.1,17.1,0,0,0,512.2,94Z" transform="translate(-85.56 -16.95)" style="fill:#f2f2f2;stroke:#e6e6e6;stroke-miterlimit:10;stroke-width:0.25px"/><path d="M567.28,135.94a36.4,36.4,0,0,1-11-7.65,3.06,3.06,0,0,1-1.23-2.44,3.23,3.23,0,0,1,1-2.25,3,3,0,0,1,2.2-1,3.12,3.12,0,0,1,2.24,1,25.72,25.72,0,0,0,19.89,8.77q7.35,0,12.19-3.46a10.67,10.67,0,0,0,4.84-9.08,11.05,11.05,0,0,0-2.39-7.29,18,18,0,0,0-6.28-4.75,83.42,83.42,0,0,0-9.89-3.77,59.68,59.68,0,0,1-11-4.29,20,20,0,0,1-7.19-6.27A16.88,16.88,0,0,1,558,83.52a16.37,16.37,0,0,1,2.91-9.59A19.5,19.5,0,0,1,569,67.35,28.78,28.78,0,0,1,581.1,65,32.41,32.41,0,0,1,592.78,67a20.94,20.94,0,0,1,8.72,6A5,5,0,0,1,603,76a2.88,2.88,0,0,1-1,2.09,3.16,3.16,0,0,1-2.24,1,2.33,2.33,0,0,1-1.73-.72,20.19,20.19,0,0,0-7.35-5.3,23.34,23.34,0,0,0-9.59-2q-7.44,0-12.13,3.32a11.21,11.21,0,0,0-.21,18.1,47.52,47.52,0,0,0,12.86,5.81,78.77,78.77,0,0,1,11.83,4.39,19.45,19.45,0,0,1,7.49,6.37q2.91,4.14,2.91,10.87a15.86,15.86,0,0,1-3,9.43,20.24,20.24,0,0,1-8.36,6.68,28.91,28.91,0,0,1-12.19,2.45A32.39,32.39,0,0,1,567.28,135.94Z" transform="translate(-85.56 -16.95)" style="fill:#fb9e3d"/><path d="M661.33,86a3.21,3.21,0,0,1,.86,2.25v66.5a3.1,3.1,0,0,1-5.25,2.19,2.94,2.94,0,0,1-.87-2.19V127.17a22,22,0,0,1-7.6,8,20.07,20.07,0,0,1-11.16,3.26,22,22,0,0,1-12.19-3.52,24.47,24.47,0,0,1-8.62-9.74,32.24,32.24,0,0,1,0-27.84,24.57,24.57,0,0,1,8.62-9.75A21.84,21.84,0,0,1,637.2,84a21.44,21.44,0,0,1,11.12,3,20.5,20.5,0,0,1,7.75,7.8V88.21a3.17,3.17,0,0,1,.87-2.25,3.1,3.1,0,0,1,4.39,0Zm-13.87,44a18.71,18.71,0,0,0,6.63-7.71,25.1,25.1,0,0,0,2.39-11.06,24.64,24.64,0,0,0-2.39-10.92,19.13,19.13,0,0,0-6.63-7.7,17.65,17.65,0,0,0-19.08,0,19.13,19.13,0,0,0-6.63,7.7,26.25,26.25,0,0,0,0,21.93,19,19,0,0,0,6.63,7.7,16.8,16.8,0,0,0,9.54,2.81A17.19,17.19,0,0,0,647.46,129.93Z" transform="translate(-85.56 -16.95)" style="fill:#fb9e3d"/><path d="M719.36,86.42a3,3,0,0,1,.87,2.2v28.76q0,10-5.61,15.35t-15.5,5.36q-9.79,0-15.35-5.36t-5.56-15.35V88.62a3.1,3.1,0,0,1,5.25-2.2,3,3,0,0,1,.87,2.2v28.76q0,7.35,3.87,11.17t10.92,3.82q7.14,0,11.06-3.82t3.93-11.17V88.62a3.1,3.1,0,0,1,5.25-2.2Z" transform="translate(-85.56 -16.95)" style="fill:#fb9e3d"/><path d="M735.94,76.53a3.5,3.5,0,0,1-1.12-2.81v-1A3.43,3.43,0,0,1,736,69.9a4.86,4.86,0,0,1,3.21-1q4.08,0,4.08,3.77v1a3.61,3.61,0,0,1-1.07,2.81,4.46,4.46,0,0,1-3.11,1A4.65,4.65,0,0,1,735.94,76.53Zm5.35,60a3,3,0,0,1-2.19.87,3,3,0,0,1-3.06-3.06V87.39a3,3,0,0,1,.87-2.19,2.94,2.94,0,0,1,2.19-.87,3,3,0,0,1,3.06,3.06v46.92A2.94,2.94,0,0,1,741.29,136.5Z" transform="translate(-85.56 -16.95)" style="fill:#fb9e3d"/><path d="M786.12,84.84a2.62,2.62,0,0,1,1.63,2.45,3.2,3.2,0,0,1-.81,2.29,2.58,2.58,0,0,1-1.94.87,7.84,7.84,0,0,1-2-.51,8.62,8.62,0,0,0-2.8-.51,12.13,12.13,0,0,0-7.5,2.91,22.48,22.48,0,0,0-6.12,7.5,19.83,19.83,0,0,0-2.4,9.28v25.19a3.06,3.06,0,1,1-6.12,0V88.62a3.06,3.06,0,1,1,6.12,0v9A23.44,23.44,0,0,1,771.28,88,17.68,17.68,0,0,1,782.45,84,8.14,8.14,0,0,1,786.12,84.84Z" transform="translate(-85.56 -16.95)" style="fill:#fb9e3d"/><path d="M825.39,84.84A2.62,2.62,0,0,1,827,87.29a3.2,3.2,0,0,1-.81,2.29,2.58,2.58,0,0,1-1.94.87,7.74,7.74,0,0,1-2-.51,8.63,8.63,0,0,0-2.81-.51A12.13,12.13,0,0,0,812,92.34a22.48,22.48,0,0,0-6.12,7.5,19.83,19.83,0,0,0-2.4,9.28v25.19a2.94,2.94,0,0,1-.87,2.19,3.19,3.19,0,0,1-4.38,0,2.94,2.94,0,0,1-.87-2.19V88.62a3.06,3.06,0,1,1,6.12,0v9A23.44,23.44,0,0,1,810.55,88,17.66,17.66,0,0,1,821.72,84,8.14,8.14,0,0,1,825.39,84.84Z" transform="translate(-85.56 -16.95)" style="fill:#fb9e3d"/><path d="M877.51,110.39a3,3,0,0,1-2.14.87H836.81a23.59,23.59,0,0,0,2.5,11,18.81,18.81,0,0,0,7.14,7.65,20.72,20.72,0,0,0,11,2.81,18.54,18.54,0,0,0,8.77-2,18,18,0,0,0,6.22-5.2,3.46,3.46,0,0,1,2.14-.92,2.81,2.81,0,0,1,2.66,2.65,3,3,0,0,1-1,2.14,25.69,25.69,0,0,1-8.21,6.53,22.54,22.54,0,0,1-10.46,2.55A28,28,0,0,1,843.65,135a24,24,0,0,1-9.39-9.44,28.45,28.45,0,0,1-3.36-14,30.88,30.88,0,0,1,3.31-14.64A23.89,23.89,0,0,1,843,87.34,22.36,22.36,0,0,1,854.77,84a24,24,0,0,1,11.47,2.85A22.56,22.56,0,0,1,875,95.25a25.16,25.16,0,0,1,3.47,13A2.73,2.73,0,0,1,877.51,110.39ZM843.8,94q-5,4.08-6.48,11.73h34.79v-.81a16.11,16.11,0,0,0-3.06-8,16.6,16.6,0,0,0-6.38-5.2,18.48,18.48,0,0,0-7.9-1.79A17.1,17.1,0,0,0,843.8,94Z" transform="translate(-85.56 -16.95)" style="fill:#fb9e3d"/><path d="M896.94,136.5a3.06,3.06,0,0,1-5.25-2.19V65a3.06,3.06,0,1,1,6.12,0v69.36A2.94,2.94,0,0,1,896.94,136.5Z" transform="translate(-85.56 -16.95)" style="fill:#fb9e3d"/><path d="M357.47,167.33a1,1,0,0,1,.32.77,1,1,0,0,1-.32.76,1.12,1.12,0,0,1-.79.28H349v22.68a1.06,1.06,0,0,1-.33.8,1.16,1.16,0,0,1-.82.31,1.12,1.12,0,0,1-.83-.31,1.09,1.09,0,0,1-.32-.8V169.14h-7.65a1.12,1.12,0,0,1-.8-.3,1,1,0,0,1-.31-.77,1,1,0,0,1,.31-.74,1.12,1.12,0,0,1,.8-.3h17.61A1.09,1.09,0,0,1,357.47,167.33Z" transform="translate(-85.56 -16.95)" style="fill:#e6e6e6"/><path d="M375.55,176a8.51,8.51,0,0,1,1.63,5.38v10.47a1.09,1.09,0,0,1-.32.8,1.17,1.17,0,0,1-1.59,0,1.09,1.09,0,0,1-.31-.8V181.35a6.26,6.26,0,0,0-1.15-3.9,4.24,4.24,0,0,0-3.59-1.5,6.06,6.06,0,0,0-2.94.74,6.13,6.13,0,0,0-2.24,2,4.61,4.61,0,0,0-.85,2.68v10.47a1.09,1.09,0,0,1-.32.8,1.06,1.06,0,0,1-.79.31,1.06,1.06,0,0,1-1.11-1.11V166.66a1.06,1.06,0,0,1,1.11-1.11,1.06,1.06,0,0,1,.79.31,1.09,1.09,0,0,1,.32.8V177.5a7.74,7.74,0,0,1,2.77-2.61,7.23,7.23,0,0,1,3.63-1A5.89,5.89,0,0,1,375.55,176Z" transform="translate(-85.56 -16.95)" style="fill:#e6e6e6"/><path d="M398.64,183.14a1.13,1.13,0,0,1-.78.32h-14a8.52,8.52,0,0,0,.91,4,6.84,6.84,0,0,0,2.59,2.77,7.53,7.53,0,0,0,4,1,6.78,6.78,0,0,0,3.18-.74,6.59,6.59,0,0,0,2.26-1.89,1.25,1.25,0,0,1,.77-.33,1,1,0,0,1,.67.29.91.91,0,0,1,.29.67,1.1,1.1,0,0,1-.37.78,9.43,9.43,0,0,1-3,2.37,8.29,8.29,0,0,1-3.8.92,10.18,10.18,0,0,1-5-1.22,8.67,8.67,0,0,1-3.4-3.42,10.28,10.28,0,0,1-1.22-5.09,11.24,11.24,0,0,1,1.2-5.31,8.65,8.65,0,0,1,3.2-3.48,8.12,8.12,0,0,1,4.25-1.2,8.65,8.65,0,0,1,4.17,1,8.19,8.19,0,0,1,3.16,3,9.24,9.24,0,0,1,1.26,4.74A1,1,0,0,1,398.64,183.14Zm-12.23-5.93a6.81,6.81,0,0,0-2.35,4.25h12.61v-.3a5.77,5.77,0,0,0-1.11-2.9,6,6,0,0,0-2.31-1.89,6.72,6.72,0,0,0-2.87-.65A6.17,6.17,0,0,0,386.41,177.21Z" transform="translate(-85.56 -16.95)" style="fill:#e6e6e6"/><path d="M429.81,165.86a1.09,1.09,0,0,1,.31.8v25.16a1.06,1.06,0,0,1-1.11,1.11,1.06,1.06,0,0,1-.79-.31,1.09,1.09,0,0,1-.32-.8v-2.59a8,8,0,0,1-2.75,2.89,7.35,7.35,0,0,1-4.06,1.18,8,8,0,0,1-4.42-1.28,8.86,8.86,0,0,1-3.12-3.53,11.66,11.66,0,0,1,0-10.1,8.86,8.86,0,0,1,3.12-3.53,7.86,7.86,0,0,1,4.39-1.28,7.77,7.77,0,0,1,4,1.09,7.48,7.48,0,0,1,2.81,2.83V166.66a1.09,1.09,0,0,1,.32-.8,1.06,1.06,0,0,1,.79-.31A1.09,1.09,0,0,1,429.81,165.86Zm-5,24.37a6.83,6.83,0,0,0,2.4-2.79,9.12,9.12,0,0,0,.87-4,8.92,8.92,0,0,0-.87-4,7,7,0,0,0-2.4-2.79,6.38,6.38,0,0,0-6.92,0,6.91,6.91,0,0,0-2.41,2.79,9.54,9.54,0,0,0,0,8,6.91,6.91,0,0,0,2.41,2.79,6.09,6.09,0,0,0,3.46,1A6.28,6.28,0,0,0,424.78,190.23Z" transform="translate(-85.56 -16.95)" style="fill:#e6e6e6"/><path d="M452.08,174.36a1.13,1.13,0,0,1,.32.81v16.65a1.09,1.09,0,0,1-.32.8,1.17,1.17,0,0,1-1.59,0,1.09,1.09,0,0,1-.31-.8v-2.48a7.78,7.78,0,0,1-2.78,2.81,7.46,7.46,0,0,1-4,1.15,8,8,0,0,1-4.46-1.29,8.92,8.92,0,0,1-3.11-3.56,11.18,11.18,0,0,1-1.13-5.07,10.88,10.88,0,0,1,1.15-5,8.77,8.77,0,0,1,3.13-3.49,8.26,8.26,0,0,1,8.45-.19,7.21,7.21,0,0,1,2.78,2.81v-2.29a1.12,1.12,0,0,1,.31-.81,1.1,1.1,0,0,1,1.59,0Zm-5,15.85a6.89,6.89,0,0,0,2.4-2.81,9.12,9.12,0,0,0,.87-4,8.81,8.81,0,0,0-.87-3.92,7,7,0,0,0-2.4-2.79,6.43,6.43,0,0,0-6.92,0,6.9,6.9,0,0,0-2.41,2.76,8.94,8.94,0,0,0-.86,4,9.25,9.25,0,0,0,.85,4,6.7,6.7,0,0,0,2.38,2.81,6.45,6.45,0,0,0,7,0Z" transform="translate(-85.56 -16.95)" style="fill:#e6e6e6"/><path d="M461.9,176.17v12.39a2.68,2.68,0,0,0,.52,1.91,1.91,1.91,0,0,0,1.37.5,2.28,2.28,0,0,0,.56-.09,1.78,1.78,0,0,1,.51-.1.75.75,0,0,1,.58.28,1,1,0,0,1,.24.65,1,1,0,0,1-.59.87,2.78,2.78,0,0,1-1.41.35,7.93,7.93,0,0,1-1.78-.18,2.9,2.9,0,0,1-1.49-1.11,4.79,4.79,0,0,1-.73-3V176.17H457a1.07,1.07,0,0,1-.76-.3,1,1,0,0,1-.31-.74,1,1,0,0,1,.31-.74,1.11,1.11,0,0,1,.76-.29h2.7V170a1.09,1.09,0,0,1,.32-.8,1.06,1.06,0,0,1,.79-.31A1.06,1.06,0,0,1,461.9,170v4.11h3.7a1,1,0,0,1,.73.33,1,1,0,0,1,.31.74.92.92,0,0,1-.3.72,1,1,0,0,1-.74.28Z" transform="translate(-85.56 -16.95)" style="fill:#e6e6e6"/><path d="M486.21,183.14a1.09,1.09,0,0,1-.77.32h-14a8.52,8.52,0,0,0,.91,4,6.78,6.78,0,0,0,2.59,2.77,7.49,7.49,0,0,0,4,1,6.79,6.79,0,0,0,3.19-.74,6.55,6.55,0,0,0,2.25-1.89,1.25,1.25,0,0,1,.78-.33,1,1,0,0,1,1,1,1.1,1.1,0,0,1-.37.78,9.36,9.36,0,0,1-3,2.37,8.22,8.22,0,0,1-3.79.92,10.15,10.15,0,0,1-5-1.22,8.61,8.61,0,0,1-3.4-3.42,10.28,10.28,0,0,1-1.23-5.09,11.12,11.12,0,0,1,1.21-5.31,8.65,8.65,0,0,1,3.2-3.48,8.12,8.12,0,0,1,4.25-1.2,8.59,8.59,0,0,1,4.16,1,8.22,8.22,0,0,1,3.17,3,9.24,9.24,0,0,1,1.26,4.74A1,1,0,0,1,486.21,183.14ZM474,177.21a6.8,6.8,0,0,0-2.34,4.25h12.61v-.3a5.77,5.77,0,0,0-1.11-2.9,6.05,6.05,0,0,0-2.31-1.89,6.75,6.75,0,0,0-2.87-.65A6.22,6.22,0,0,0,474,177.21Z" transform="translate(-85.56 -16.95)" style="fill:#e6e6e6"/><path d="M514.67,175.11a8.55,8.55,0,0,1,3.12,3.45,11.43,11.43,0,0,1,0,9.91,8.69,8.69,0,0,1-3.11,3.46,8.05,8.05,0,0,1-4.42,1.26,7.85,7.85,0,0,1-3.94-1,7.94,7.94,0,0,1-2.86-2.72v9.77a1.08,1.08,0,0,1-1.11,1.11,1.11,1.11,0,0,1-.8-.31,1.09,1.09,0,0,1-.32-.8V175.1a1.16,1.16,0,0,1,.32-.82,1.12,1.12,0,0,1,1.59,0,1.16,1.16,0,0,1,.32.82v2.51a6.89,6.89,0,0,1,2.77-2.74,8.21,8.21,0,0,1,4-1A8.34,8.34,0,0,1,514.67,175.11Zm-1.17,15a6.78,6.78,0,0,0,2.41-2.72,8.78,8.78,0,0,0,.86-3.92,8.57,8.57,0,0,0-.86-3.87,6.73,6.73,0,0,0-2.41-2.7,6.24,6.24,0,0,0-3.46-1,6.51,6.51,0,0,0-3.51,1,6.4,6.4,0,0,0-2.41,2.68,8.68,8.68,0,0,0-.85,3.91,8.78,8.78,0,0,0,.85,3.92,6.57,6.57,0,0,0,2.41,2.72,6.44,6.44,0,0,0,3.51,1A6.32,6.32,0,0,0,513.5,190.14Z" transform="translate(-85.56 -16.95)" style="fill:#e6e6e6"/><path d="M523.4,170.86a1.27,1.27,0,0,1-.41-1v-.37a1.25,1.25,0,0,1,.43-1,1.78,1.78,0,0,1,1.16-.35c1,0,1.48.46,1.48,1.37v.37a1.29,1.29,0,0,1-.39,1,1.64,1.64,0,0,1-1.13.35A1.71,1.71,0,0,1,523.4,170.86Zm1.94,21.76a1.09,1.09,0,0,1-.8.31,1.06,1.06,0,0,1-.79-.31,1.09,1.09,0,0,1-.32-.8v-17a1.08,1.08,0,0,1,1.11-1.11,1.13,1.13,0,0,1,.8.31,1.09,1.09,0,0,1,.31.8v17A1.09,1.09,0,0,1,525.34,192.62Z" transform="translate(-85.56 -16.95)" style="fill:#e6e6e6"/><path d="M542.84,174a7.19,7.19,0,0,1,2.41,1.05,1.86,1.86,0,0,1,.9,1.45,1.17,1.17,0,0,1-.27.74.88.88,0,0,1-.69.33,1.13,1.13,0,0,1-.61-.15A3.61,3.61,0,0,1,544,177a3.87,3.87,0,0,0-.92-.71,6.3,6.3,0,0,0-1.46-.42,11,11,0,0,0-1.95-.17,7,7,0,0,0-3.71,1,7.24,7.24,0,0,0-2.65,2.81,8.1,8.1,0,0,0-1,3.92,8.63,8.63,0,0,0,.92,4,7.14,7.14,0,0,0,2.57,2.79,7,7,0,0,0,3.76,1,8.58,8.58,0,0,0,2.13-.22,8.31,8.31,0,0,0,1.57-.63,7.92,7.92,0,0,0,.89-.67,4.11,4.11,0,0,1,.52-.39,1,1,0,0,1,.48-.13.93.93,0,0,1,.7.28,1,1,0,0,1,.26.72,1.93,1.93,0,0,1-.89,1.35,7.7,7.7,0,0,1-2.44,1.24,10.7,10.7,0,0,1-3.44.52,9.1,9.1,0,0,1-4.81-1.28,8.73,8.73,0,0,1-3.28-3.53,10.94,10.94,0,0,1-1.16-5.07,10.39,10.39,0,0,1,1.18-4.94,9.22,9.22,0,0,1,3.33-3.57,9.11,9.11,0,0,1,4.92-1.33A12.84,12.84,0,0,1,542.84,174Z" transform="translate(-85.56 -16.95)" style="fill:#e6e6e6"/><path d="M565.76,191.82a1,1,0,0,1-.39.8,1.18,1.18,0,0,1-.72.31,1,1,0,0,1-.81-.41l-8.18-8.66-2.77,2.37v5.59a1.09,1.09,0,0,1-.32.8,1.06,1.06,0,0,1-.79.31,1.06,1.06,0,0,1-1.11-1.11V166.66a1.06,1.06,0,0,1,1.11-1.11,1.06,1.06,0,0,1,.79.31,1.09,1.09,0,0,1,.32.8v16.87l10.69-9.21a1,1,0,0,1,.78-.37,1,1,0,0,1,.74.35,1.11,1.11,0,0,1,.33.76,1.22,1.22,0,0,1-.41.85l-7.62,6.48,8,8.58A1.25,1.25,0,0,1,565.76,191.82Z" transform="translate(-85.56 -16.95)" style="fill:#e6e6e6"/><path d="M585.08,183.14a1.13,1.13,0,0,1-.78.32h-14a8.64,8.64,0,0,0,.91,4,6.84,6.84,0,0,0,2.59,2.77,7.53,7.53,0,0,0,4,1,6.78,6.78,0,0,0,3.18-.74,6.59,6.59,0,0,0,2.26-1.89,1.25,1.25,0,0,1,.77-.33,1,1,0,0,1,.67.29.91.91,0,0,1,.29.67,1.1,1.1,0,0,1-.37.78,9.43,9.43,0,0,1-3,2.37,8.26,8.26,0,0,1-3.8.92,10.18,10.18,0,0,1-5-1.22,8.67,8.67,0,0,1-3.4-3.42,10.28,10.28,0,0,1-1.22-5.09,11.24,11.24,0,0,1,1.2-5.31,8.65,8.65,0,0,1,3.2-3.48,8.13,8.13,0,0,1,4.26-1.2,8.64,8.64,0,0,1,4.16,1,8.19,8.19,0,0,1,3.16,3,9.24,9.24,0,0,1,1.26,4.74A1,1,0,0,1,585.08,183.14Zm-12.23-5.93a6.81,6.81,0,0,0-2.35,4.25h12.62v-.3a5.88,5.88,0,0,0-1.12-2.9,6,6,0,0,0-2.31-1.89,6.71,6.71,0,0,0-2.86-.65A6.18,6.18,0,0,0,572.85,177.21Z" transform="translate(-85.56 -16.95)" style="fill:#e6e6e6"/><path d="M600.17,173.88a.93.93,0,0,1,.59.88,1.16,1.16,0,0,1-.29.84.93.93,0,0,1-.71.31,2.68,2.68,0,0,1-.72-.19,3.13,3.13,0,0,0-1-.18,4.4,4.4,0,0,0-2.72,1.05,8.29,8.29,0,0,0-2.22,2.72,7.23,7.23,0,0,0-.87,3.37v9.14a1.09,1.09,0,0,1-.32.8,1.06,1.06,0,0,1-.79.31,1.06,1.06,0,0,1-1.11-1.11V175.24a1.06,1.06,0,0,1,.31-.79,1.09,1.09,0,0,1,.8-.32,1.09,1.09,0,0,1,1.11,1.11v3.26a8.42,8.42,0,0,1,2.57-3.5,6.44,6.44,0,0,1,4.05-1.42A2.89,2.89,0,0,1,600.17,173.88Z" transform="translate(-85.56 -16.95)" style="fill:#e6e6e6"/><path d="M637.6,173.91a1.07,1.07,0,0,1,.31.82,4.21,4.21,0,0,1-.11.48l-5.7,17a1.45,1.45,0,0,1-.48.53.92.92,0,0,1-.63.17,1,1,0,0,1-.59-.18,1.34,1.34,0,0,1-.41-.52l-4.84-11.4-4.33,11.4a1.37,1.37,0,0,1-.43.5,1,1,0,0,1-.57.2,1.05,1.05,0,0,1-.69-.17,1,1,0,0,1-.42-.53l-5.85-17a1.13,1.13,0,0,1-.11-.48,1.06,1.06,0,0,1,.33-.8,1.16,1.16,0,0,1,.82-.31,1,1,0,0,1,.61.2,1.13,1.13,0,0,1,.39.54l4.92,14.76,4.4-11.06a1,1,0,0,1,1-.71,1,1,0,0,1,1,.71l4.63,11,4.85-14.69a1,1,0,0,1,1-.74A1.16,1.16,0,0,1,637.6,173.91Z" transform="translate(-85.56 -16.95)" style="fill:#e6e6e6"/><path d="M642.06,170.86a1.24,1.24,0,0,1-.41-1v-.37a1.27,1.27,0,0,1,.42-1,1.83,1.83,0,0,1,1.17-.35c1,0,1.48.46,1.48,1.37v.37a1.29,1.29,0,0,1-.39,1,1.64,1.64,0,0,1-1.13.35A1.71,1.71,0,0,1,642.06,170.86ZM644,192.62a1.09,1.09,0,0,1-.8.31,1.06,1.06,0,0,1-.79-.31,1.09,1.09,0,0,1-.32-.8v-17a1.08,1.08,0,0,1,1.11-1.11,1.13,1.13,0,0,1,.8.31,1.09,1.09,0,0,1,.31.8v17A1.09,1.09,0,0,1,644,192.62Z" transform="translate(-85.56 -16.95)" style="fill:#e6e6e6"/><path d="M653.78,176.17v12.39a2.68,2.68,0,0,0,.52,1.91,1.91,1.91,0,0,0,1.37.5,2.28,2.28,0,0,0,.56-.09,1.78,1.78,0,0,1,.51-.1.75.75,0,0,1,.58.28,1,1,0,0,1,.24.65,1,1,0,0,1-.59.87,2.78,2.78,0,0,1-1.41.35,7.93,7.93,0,0,1-1.78-.18,2.9,2.9,0,0,1-1.49-1.11,4.79,4.79,0,0,1-.73-3V176.17h-2.7a1.07,1.07,0,0,1-.76-.3,1,1,0,0,1-.31-.74,1,1,0,0,1,.31-.74,1.11,1.11,0,0,1,.76-.29h2.7V170a1.09,1.09,0,0,1,.32-.8,1.06,1.06,0,0,1,.79-.31,1.06,1.06,0,0,1,1.11,1.11v4.11h3.7a1,1,0,0,1,.73.33,1,1,0,0,1,.31.74.92.92,0,0,1-.3.72,1,1,0,0,1-.74.28Z" transform="translate(-85.56 -16.95)" style="fill:#e6e6e6"/><path d="M676.21,176a8.51,8.51,0,0,1,1.62,5.38v10.47a1.06,1.06,0,0,1-1.11,1.11,1.06,1.06,0,0,1-.79-.31,1.09,1.09,0,0,1-.32-.8V181.35a6.25,6.25,0,0,0-1.14-3.9,4.24,4.24,0,0,0-3.59-1.5,6.37,6.37,0,0,0-5.18,2.72,4.61,4.61,0,0,0-.85,2.68v10.47a1.09,1.09,0,0,1-.32.8,1.06,1.06,0,0,1-.79.31,1.06,1.06,0,0,1-1.11-1.11V166.66a1.06,1.06,0,0,1,1.11-1.11,1.06,1.06,0,0,1,.79.31,1.09,1.09,0,0,1,.32.8V177.5a7.74,7.74,0,0,1,2.77-2.61,7.2,7.2,0,0,1,3.63-1A5.89,5.89,0,0,1,676.21,176Z" transform="translate(-85.56 -16.95)" style="fill:#e6e6e6"/><path d="M709.89,174.36a1.13,1.13,0,0,1,.32.81v16.65a1.09,1.09,0,0,1-.32.8,1.06,1.06,0,0,1-.79.31,1.06,1.06,0,0,1-1.11-1.11v-2.48a7.7,7.7,0,0,1-2.78,2.81,7.46,7.46,0,0,1-4,1.15,8,8,0,0,1-4.46-1.29,9,9,0,0,1-3.11-3.56,11.18,11.18,0,0,1-1.12-5.07,11,11,0,0,1,1.14-5,8.84,8.84,0,0,1,3.13-3.49,8.26,8.26,0,0,1,8.45-.19,7.14,7.14,0,0,1,2.78,2.81v-2.29a1.12,1.12,0,0,1,.31-.81,1,1,0,0,1,.8-.34A1,1,0,0,1,709.89,174.36Zm-5,15.85a6.92,6.92,0,0,0,2.41-2.81,9.12,9.12,0,0,0,.87-4,8.81,8.81,0,0,0-.87-3.92,7,7,0,0,0-2.41-2.79,6.11,6.11,0,0,0-3.46-1,6.2,6.2,0,0,0-3.46,1,6.88,6.88,0,0,0-2.4,2.76,8.81,8.81,0,0,0-.87,4,9.25,9.25,0,0,0,.85,4,6.73,6.73,0,0,0,2.39,2.81,6.43,6.43,0,0,0,7,0Z" transform="translate(-85.56 -16.95)" style="fill:#e6e6e6"/><path d="M740.09,175.6a8.31,8.31,0,0,1,1.61,5.34v10.88a1.13,1.13,0,0,1-1.91.8,1.09,1.09,0,0,1-.32-.8V181.05a6.05,6.05,0,0,0-1.2-3.9,4.48,4.48,0,0,0-3.72-1.5,6.63,6.63,0,0,0-5.32,2.72,4.47,4.47,0,0,0-.89,2.68v10.77a1.09,1.09,0,0,1-.32.8,1.06,1.06,0,0,1-.79.31,1.06,1.06,0,0,1-1.11-1.11V175.24a1.06,1.06,0,0,1,.31-.79,1.09,1.09,0,0,1,.8-.32,1.09,1.09,0,0,1,1.11,1.11v2a7.85,7.85,0,0,1,2.87-2.65,7.71,7.71,0,0,1,3.83-1A6.07,6.07,0,0,1,740.09,175.6Z" transform="translate(-85.56 -16.95)" style="fill:#e6e6e6"/><path d="M762.43,174.45a1.07,1.07,0,0,1,.32.79v10.44a7.33,7.33,0,0,1-2,5.57,7.82,7.82,0,0,1-5.62,1.94,7.71,7.71,0,0,1-5.57-1.94,7.36,7.36,0,0,1-2-5.57V175.24a1.09,1.09,0,0,1,1.11-1.11,1.09,1.09,0,0,1,.8.32,1.06,1.06,0,0,1,.31.79v10.44a4.89,4.89,0,0,0,5.37,5.44,5.54,5.54,0,0,0,4-1.39,5.42,5.42,0,0,0,1.43-4V175.24a1.06,1.06,0,0,1,.31-.79,1.09,1.09,0,0,1,.8-.32A1.07,1.07,0,0,1,762.43,174.45Z" transform="translate(-85.56 -16.95)" style="fill:#e6e6e6"/><path d="M772.26,176.17v12.39a2.68,2.68,0,0,0,.51,1.91,1.92,1.92,0,0,0,1.37.5,2.21,2.21,0,0,0,.56-.09,1.78,1.78,0,0,1,.52-.1.75.75,0,0,1,.57.28,1,1,0,0,1,.24.65,1,1,0,0,1-.59.87,2.78,2.78,0,0,1-1.41.35,7.84,7.84,0,0,1-1.77-.18,2.88,2.88,0,0,1-1.5-1.11,4.86,4.86,0,0,1-.72-3V176.17h-2.7a1.06,1.06,0,0,1-.76-.3,1,1,0,0,1-.32-.74,1,1,0,0,1,.32-.74,1.09,1.09,0,0,1,.76-.29H770V170a1.06,1.06,0,0,1,1.11-1.11,1.06,1.06,0,0,1,.79.31,1.09,1.09,0,0,1,.32.8v4.11H776a1,1,0,0,1,.72.33,1,1,0,0,1,.31.74,1,1,0,0,1-.29.72,1,1,0,0,1-.74.28Z" transform="translate(-85.56 -16.95)" style="fill:#e6e6e6"/><path d="M784.8,176.17v12.39a2.63,2.63,0,0,0,.52,1.91,1.89,1.89,0,0,0,1.37.5,2.21,2.21,0,0,0,.55-.09,1.78,1.78,0,0,1,.52-.1.75.75,0,0,1,.57.28,1,1,0,0,1,.24.65,1,1,0,0,1-.59.87,2.73,2.73,0,0,1-1.41.35,7.9,7.9,0,0,1-1.77-.18,2.88,2.88,0,0,1-1.5-1.11,4.86,4.86,0,0,1-.72-3V176.17h-2.7a1.06,1.06,0,0,1-.76-.3,1,1,0,0,1-.32-.74,1,1,0,0,1,.32-.74,1.09,1.09,0,0,1,.76-.29h2.7V170a1.06,1.06,0,0,1,1.11-1.11,1.06,1.06,0,0,1,.79.31,1.09,1.09,0,0,1,.32.8v4.11h3.7a1,1,0,0,1,.72.33,1,1,0,0,1,.31.74.91.91,0,0,1-.29.72,1,1,0,0,1-.74.28Z" transform="translate(-85.56 -16.95)" style="fill:#e6e6e6"/><path d="M808.53,174a1.09,1.09,0,0,1,.32.8v16.32a10.2,10.2,0,0,1-1.15,5,7.66,7.66,0,0,1-3.18,3.15,9.77,9.77,0,0,1-4.59,1.07A12.15,12.15,0,0,1,797,200a7.92,7.92,0,0,1-2.24-.89A1.33,1.33,0,0,1,794,198a2.27,2.27,0,0,1,.08-.37,1,1,0,0,1,.37-.56.93.93,0,0,1,.55-.18.87.87,0,0,1,.44.11,9.49,9.49,0,0,0,4.52,1.29,6.31,6.31,0,0,0,4.86-1.92,7.4,7.4,0,0,0,1.8-5.26v-1.29a6.87,6.87,0,0,1-2.67,2.5,7.75,7.75,0,0,1-3.77.94,6.1,6.1,0,0,1-4.88-1.92,7.73,7.73,0,0,1-1.67-5.22V174.8a1.08,1.08,0,0,1,1.11-1.11,1.13,1.13,0,0,1,.8.31,1.09,1.09,0,0,1,.31.8v11a6.06,6.06,0,0,0,1.17,4,4.52,4.52,0,0,0,3.64,1.37,6.08,6.08,0,0,0,2.91-.76,6.31,6.31,0,0,0,2.22-2,4.68,4.68,0,0,0,.83-2.64v-11a1.09,1.09,0,0,1,.31-.8,1.13,1.13,0,0,1,.8-.31A1.1,1.1,0,0,1,808.53,174Z" transform="translate(-85.56 -16.95)" style="fill:#e6e6e6"/><path d="M828.46,176.17v12.39a2.68,2.68,0,0,0,.51,1.91,1.92,1.92,0,0,0,1.37.5,2.21,2.21,0,0,0,.56-.09,1.78,1.78,0,0,1,.52-.1.75.75,0,0,1,.57.28,1,1,0,0,1,.24.65,1,1,0,0,1-.59.87,2.76,2.76,0,0,1-1.41.35,7.84,7.84,0,0,1-1.77-.18,2.88,2.88,0,0,1-1.5-1.11,4.86,4.86,0,0,1-.72-3V176.17h-2.7a1.06,1.06,0,0,1-.76-.3,1,1,0,0,1-.32-.74,1,1,0,0,1,.32-.74,1.09,1.09,0,0,1,.76-.29h2.7V170a1.06,1.06,0,0,1,1.11-1.11,1.06,1.06,0,0,1,.79.31,1.09,1.09,0,0,1,.32.8v4.11h3.7a1,1,0,0,1,.72.33,1,1,0,0,1,.31.74,1,1,0,0,1-.29.72,1,1,0,0,1-.74.28Z" transform="translate(-85.56 -16.95)" style="fill:#e6e6e6"/><path d="M853.45,174.36a1.12,1.12,0,0,1,.31.81v16.65a1.09,1.09,0,0,1-.31.8,1.17,1.17,0,0,1-1.59,0,1.09,1.09,0,0,1-.31-.8v-2.48a7.78,7.78,0,0,1-2.78,2.81,7.46,7.46,0,0,1-4,1.15,8,8,0,0,1-4.46-1.29,8.92,8.92,0,0,1-3.11-3.56,11.18,11.18,0,0,1-1.13-5.07,10.88,10.88,0,0,1,1.15-5,8.77,8.77,0,0,1,3.13-3.49,8.26,8.26,0,0,1,8.45-.19,7.21,7.21,0,0,1,2.78,2.81v-2.29a1.12,1.12,0,0,1,.31-.81,1.1,1.1,0,0,1,1.59,0Zm-5,15.85a6.89,6.89,0,0,0,2.4-2.81,9.12,9.12,0,0,0,.87-4,8.81,8.81,0,0,0-.87-3.92,7,7,0,0,0-2.4-2.79,6.43,6.43,0,0,0-6.92,0,6.9,6.9,0,0,0-2.41,2.76,8.81,8.81,0,0,0-.87,4,9.25,9.25,0,0,0,.86,4,6.7,6.7,0,0,0,2.38,2.81,6.45,6.45,0,0,0,7,0Z" transform="translate(-85.56 -16.95)" style="fill:#e6e6e6"/><path d="M873.54,175.6a8.31,8.31,0,0,1,1.61,5.34v10.88a1.06,1.06,0,0,1-.33.8,1.09,1.09,0,0,1-.78.31,1,1,0,0,1-.79-.31,1.09,1.09,0,0,1-.32-.8V181.05a6.05,6.05,0,0,0-1.2-3.9,4.48,4.48,0,0,0-3.72-1.5,6.63,6.63,0,0,0-5.33,2.72,4.54,4.54,0,0,0-.89,2.68v10.77a1.06,1.06,0,0,1-1.11,1.11,1.06,1.06,0,0,1-.79-.31,1.09,1.09,0,0,1-.32-.8V175.24a1.09,1.09,0,0,1,1.11-1.11,1.09,1.09,0,0,1,.8.32,1.06,1.06,0,0,1,.31.79v2a8,8,0,0,1,2.87-2.65,7.73,7.73,0,0,1,3.83-1C870.78,173.58,872.47,174.25,873.54,175.6Z" transform="translate(-85.56 -16.95)" style="fill:#e6e6e6"/><path d="M897.74,174.34a1.11,1.11,0,0,1,.31.83v16a9.64,9.64,0,0,1-1.2,4.94,8,8,0,0,1-3.29,3.13,10.43,10.43,0,0,1-4.79,1.07,12,12,0,0,1-2.72-.33,11.64,11.64,0,0,1-2.45-.85c-.67-.35-1.06-.71-1.16-1.08a.82.82,0,0,1-.26-.59.68.68,0,0,1,.33-.59.58.58,0,0,1,.37-.11,2.65,2.65,0,0,1,.85.26l.78.33a12,12,0,0,0,4.29.89,6.94,6.94,0,0,0,5.16-1.87,6.82,6.82,0,0,0,1.87-5v-2.29a6.77,6.77,0,0,1-2.92,3.12,8.41,8.41,0,0,1-4.18,1.13,8.58,8.58,0,0,1-4.61-1.28,9,9,0,0,1-3.24-3.53,11.4,11.4,0,0,1,0-10.1,9,9,0,0,1,3.24-3.53,8.4,8.4,0,0,1,4.57-1.28,8.23,8.23,0,0,1,4.28,1.16,7.77,7.77,0,0,1,2.86,2.8v-2.37a1.13,1.13,0,0,1,.32-.81,1,1,0,0,1,.79-.34A1.09,1.09,0,0,1,897.74,174.34Zm-5.18,15.91a6.71,6.71,0,0,0,2.51-2.78,9.42,9.42,0,0,0,0-8.08,6.72,6.72,0,0,0-2.51-2.76,6.9,6.9,0,0,0-3.65-1,6.57,6.57,0,0,0-3.6,1,6.94,6.94,0,0,0-2.52,2.79,9.16,9.16,0,0,0,0,8,6.94,6.94,0,0,0,2.52,2.79,6.57,6.57,0,0,0,3.6,1A6.9,6.9,0,0,0,892.56,190.25Z" transform="translate(-85.56 -16.95)" style="fill:#e6e6e6"/></svg>